<?xml version="1.0" encoding="UTF-8" standalone="no"?>
<!DOCTYPE svg PUBLIC "-//W3C//DTD SVG 1.1//EN" "http://www.w3.org/Graphics/SVG/1.1/DTD/svg11.dtd">
<svg xmlns="http://www.w3.org/2000/svg" version="1.1" viewBox="0.00 0.00 40.00 39.00">
<path fill="#00bfa5" d="
  M 16.09 0.00
  L 23.85 0.00
  L 24.78 11.21
  A 0.72 0.72 0.0 0 1 24.28 11.95
  Q 15.72 14.61 9.16 20.68
  A 0.81 0.81 0.0 0 1 8.30 20.83
  L 0.00 17.26
  Q 0.02 17.17 0.00 17.07
  L 2.25 10.48
  Q 2.41 10.01 2.90 10.12
  L 14.46 12.85
  Q 15.02 12.98 15.06 12.41
  L 16.09 0.00
  Z"
/>
<path fill="#00bfa5" d="
  M 40.00 17.15
  Q 39.99 17.24 40.00 17.32
  Q 22.14 21.36 13.41 37.45
  Q 13.12 37.99 12.60 37.66
  L 5.00 32.77
  Q 4.55 32.48 4.81 32.02
  Q 15.42 13.67 36.49 10.13
  Q 37.61 9.94 37.97 11.02
  L 40.00 17.15
  Z"
/>
<path fill="#00bfa5" d="
  M 28.88 23.86
  L 34.45 33.06
  A 0.60 0.60 0.0 0 1 34.29 33.85
  L 28.98 37.72
  Q 28.50 38.08 28.11 37.62
  L 22.58 31.19
  A 0.82 0.81 39.2 0 1 22.48 30.27
  Q 24.59 26.31 28.27 23.73
  Q 28.64 23.47 28.88 23.86
  Z"
/>
</svg>
